<svg width="24" height="24" viewBox="0 0 24 24" fill="none" xmlns="http://www.w3.org/2000/svg">
<path d="M11.7773 23.5547C11.5625 23.5547 11.3672 23.5059 11.1914 23.4082C11.0156 23.291 10.8691 23.1445 10.752 22.9688C10.6543 22.793 10.6055 22.5977 10.6055 22.3828V12.9492H1.17188C0.957031 12.9492 0.761719 12.9004 0.585938 12.8027C0.410156 12.6855 0.263672 12.5391 0.146484 12.3633C0.0488281 12.1875 0 11.9922 0 11.7773C0 11.5625 0.0488281 11.3672 0.146484 11.1914C0.263672 11.0156 0.410156 10.8691 0.585938 10.752C0.761719 10.6543 0.957031 10.6055 1.17188 10.6055H10.6055V1.17188C10.6055 0.957031 10.6543 0.761719 10.752 0.585938C10.8691 0.410156 11.0156 0.263672 11.1914 0.146484C11.3672 0.0488281 11.5625 0 11.7773 0C11.9922 0 12.1875 0.0488281 12.3633 0.146484C12.5391 0.263672 12.6855 0.410156 12.8027 0.585938C12.9004 0.761719 12.9492 0.957031 12.9492 1.17188V10.6055H22.3828C22.5977 10.6055 22.793 10.6543 22.9688 10.752C23.1445 10.8691 23.291 11.0156 23.4082 11.1914C23.5059 11.3672 23.5547 11.5625 23.5547 11.7773C23.5547 11.9922 23.5059 12.1875 23.4082 12.3633C23.291 12.5391 23.1445 12.6855 22.9688 12.8027C22.793 12.9004 22.5977 12.9492 22.3828 12.9492H12.9492V22.3828C12.9492 22.5977 12.9004 22.793 12.8027 22.9688C12.6855 23.1445 12.5391 23.291 12.3633 23.4082C12.1875 23.5059 11.9922 23.5547 11.7773 23.5547Z" fill="#008BFF"/>
</svg>
